<?xml version="1.0" encoding="utf-8"?>
<!-- Generator: Adobe Illustrator 27.1.1, SVG Export Plug-In . SVG Version: 6.00 Build 0)  -->
<svg version="1.1" id="Layer_1" xmlns="http://www.w3.org/2000/svg" xmlns:xlink="http://www.w3.org/1999/xlink" x="0px" y="0px"
	 viewBox="0 0 512 512" style="enable-background:new 0 0 512 512;" xml:space="preserve">
<style type="text/css">
	.st0{fill:#00283E;}
</style>
<path class="st0" d="M512,192c-2.76,15.49-8.92,30.18-18.03,43.01L306.6,487.17c-21.64,27.95-61.83,33.07-89.78,11.44
	c-4.07-3.15-7.75-6.78-10.95-10.82L17.58,230.4c-8-11.59-13.64-24.64-16.62-38.4h133.72l101.4,263.66
	c4.21,11,16.54,16.51,27.55,12.3c5.66-2.17,10.14-6.64,12.3-12.3L377.32,192L512,192z M377.6,149.33h133.48
	c-3.25-14.43-9.47-28.03-18.28-39.91l-54.57-73.69C422.2,13.32,396.34,0.02,368.79,0h-46.93L377.6,149.33z M236.97,0l-56.73,149.33
	h151.72L276.37,0H236.97z M134.61,149.33L191.32,0h-49.54C114.46-0.03,88.8,13.06,72.77,35.18l-52.76,69.16
	C9.92,117.57,3.06,132.98,0,149.33H134.61z M331.61,192H180.39L256,388.57L331.61,192z"/>
</svg>
