<?xml version="1.0" encoding="utf-8"?>
<!-- Generator: Adobe Illustrator 27.1.1, SVG Export Plug-In . SVG Version: 6.00 Build 0)  -->
<svg version="1.1" id="Calque_1" xmlns="http://www.w3.org/2000/svg" xmlns:xlink="http://www.w3.org/1999/xlink" x="0px" y="0px"
	 viewBox="0 0 130 130" style="enable-background:new 0 0 130 130;" xml:space="preserve">
<style type="text/css">
	.st0{opacity:0.1;}
	.st1{fill:#00283E;}
</style>
<g class="st0">
	<circle class="st1" cx="65" cy="65" r="65"/>
</g>
<path class="st1" d="M81.22,45.88L65,40.5l-16.22,5.38c-2.51,0.83-4.2,3.17-4.2,5.81v13.29c0,15.36,18.78,23.84,19.59,24.2
	l0.72,0.32l0.75-0.25c0.81-0.27,19.77-6.76,19.77-24.27V51.69C85.42,49.05,83.73,46.71,81.22,45.88z M65.91,69.04
	c-0.72,0.73-1.7,1.13-2.73,1.13h-0.07c-1.04-0.02-2.04-0.46-2.75-1.22l-4.71-4.9l2.95-2.82L63.19,66l10.58-10.58l2.89,2.89
	L65.91,69.04z"/>
</svg>
