<?xml version="1.0" encoding="utf-8"?>
<!-- Generator: Adobe Illustrator 27.1.1, SVG Export Plug-In . SVG Version: 6.00 Build 0)  -->
<svg version="1.1" id="Calque_1" xmlns="http://www.w3.org/2000/svg" xmlns:xlink="http://www.w3.org/1999/xlink" x="0px" y="0px"
	 viewBox="0 0 130 130" style="enable-background:new 0 0 130 130;" xml:space="preserve">
<style type="text/css">
	.st0{opacity:0.1;}
	.st1{fill:#00283E;}
</style>
<g class="st0">
	<circle class="st1" cx="65" cy="65" r="65"/>
</g>
<path class="st1" d="M64.9,73.36c4.62,0,8.37-3.76,8.37-8.37s-3.76-8.37-8.37-8.37c-4.62,0-8.37,3.76-8.37,8.37
	S60.29,73.36,64.9,73.36z M64.9,75.45c-6.93,0-12.56,5.63-12.56,12.56c0,1.16,0.94,2.09,2.09,2.09h20.93c1.16,0,2.09-0.94,2.09-2.09
	C77.46,81.09,71.83,75.45,64.9,75.45z M51.93,59.79c0.45,1.23-1.09,2.38-2.15,1.6l-2.74-1.91l-2.73,1.91
	c-1.04,0.78-2.58-0.35-2.14-1.58l0.97-3.05l-2.55-1.78c-1.12-0.73-0.53-2.64,0.81-2.6h3.34l0.78-2.97c0.35-1.54,2.71-1.54,3.06,0
	l0.78,2.97h3.32c1.34-0.04,1.93,1.85,0.81,2.58l-2.56,1.79L51.93,59.79L51.93,59.79z M89.41,54.98l-2.56,1.79l1,3.03
	c0.45,1.23-1.09,2.38-2.15,1.6l-2.74-1.91l-2.73,1.91c-1.04,0.78-2.58-0.35-2.14-1.58l0.97-3.05l-2.55-1.78
	c-1.12-0.73-0.53-2.64,0.81-2.6h3.34l0.78-2.97c0.35-1.54,2.71-1.54,3.06,0l0.78,2.97h3.32C89.94,52.35,90.53,54.25,89.41,54.98
	L89.41,54.98z M57.89,45.13c0.14-0.64,0.71-1.11,1.37-1.11h3.34l0.78-2.97c0.35-1.54,2.71-1.54,3.06,0l0.78,2.97h3.32
	c1.34-0.04,1.93,1.85,0.81,2.58l-2.56,1.79l1,3.03c0.45,1.23-1.1,2.38-2.15,1.6l-2.74-1.91l-2.73,1.91
	c-1.04,0.78-2.58-0.35-2.14-1.58L61,48.4l-2.55-1.78C57.97,46.29,57.75,45.7,57.89,45.13L57.89,45.13z"/>
</svg>
