<?xml version="1.0" encoding="utf-8"?>
<!-- Generator: Adobe Illustrator 27.1.1, SVG Export Plug-In . SVG Version: 6.00 Build 0)  -->
<svg version="1.1" id="Calque_1" xmlns="http://www.w3.org/2000/svg" xmlns:xlink="http://www.w3.org/1999/xlink" x="0px" y="0px"
	 viewBox="0 0 90 90" style="enable-background:new 0 0 90 90;" xml:space="preserve">
<style type="text/css">
	.st0{opacity:0.1;}
	.st1{fill:#00283E;}
</style>
<g class="st0">
	<circle class="st1" cx="45" cy="44.94" r="45"/>
</g>
<path class="st1" d="M57.58,30.11L45,25.94l-12.58,4.17c-1.94,0.64-3.26,2.46-3.26,4.51v10.31c0,11.91,14.57,18.49,15.19,18.77
	l0.56,0.25l0.58-0.19c0.63-0.21,15.33-5.24,15.33-18.82V34.62C60.83,32.57,59.52,30.75,57.58,30.11z M45.7,48.08
	c-0.56,0.56-1.32,0.88-2.11,0.88h-0.05c-0.81-0.01-1.58-0.36-2.13-0.95l-3.65-3.8l2.28-2.19l3.55,3.7l8.2-8.2l2.24,2.24L45.7,48.08z
	"/>
</svg>
