<?xml version="1.0" encoding="utf-8"?>
<!-- Generator: Adobe Illustrator 27.1.1, SVG Export Plug-In . SVG Version: 6.00 Build 0)  -->
<svg version="1.1" id="Calque_1" xmlns="http://www.w3.org/2000/svg" xmlns:xlink="http://www.w3.org/1999/xlink" x="0px" y="0px"
	 viewBox="0 0 90 90" style="enable-background:new 0 0 90 90;" xml:space="preserve">
<style type="text/css">
	.st0{opacity:0.1;}
	.st1{fill:#00283E;}
</style>
<g class="st0">
	<circle class="st1" cx="45" cy="45" r="45"/>
</g>
<path class="st1" d="M40.25,32.33c0-3.5,5.32-6.33,11.88-6.33S64,28.84,64,32.33c0,3.5-5.32,6.33-11.88,6.33
	S40.25,35.83,40.25,32.33z M52.12,41.83c-1.63,0-3.17-0.18-4.58-0.5c-2.15-1.61-5.68-2.67-9.67-2.67C31.32,38.67,26,41.5,26,45
	s5.32,6.33,11.88,6.33S49.75,48.5,49.75,45c0-0.05-0.01-0.09-0.01-0.14h0.01v3.3c0,3.5-5.32,6.33-11.88,6.33S26,51.66,26,48.17v3.17
	c0,3.5,5.32,6.33,11.88,6.33s11.88-2.84,11.88-6.33v3.17c0,3.5-5.32,6.33-11.88,6.33S26,58,26,54.5v3.17c0,3.5,5.32,6.33,11.88,6.33
	s11.88-2.84,11.88-6.33v-0.13c0.77,0.08,1.56,0.13,2.38,0.13c6.56,0,11.88-2.84,11.88-6.33v-3.17c0,3.36-4.9,6.09-11.08,6.31v-3.17
	C59.1,51.09,64,48.36,64,45v-3.17c0,3.36-4.9,6.09-11.08,6.31v-3.17C59.1,44.76,64,42.02,64,38.67V35.5
	C64,39,58.68,41.83,52.12,41.83z"/>
</svg>
