<?xml version="1.0" encoding="utf-8"?>
<!-- Generator: Adobe Illustrator 27.1.1, SVG Export Plug-In . SVG Version: 6.00 Build 0)  -->
<svg version="1.1" id="Calque_1" xmlns="http://www.w3.org/2000/svg" xmlns:xlink="http://www.w3.org/1999/xlink" x="0px" y="0px"
	 viewBox="0 0 90 90" style="enable-background:new 0 0 90 90;" xml:space="preserve">
<style type="text/css">
	.st0{opacity:0.1;}
	.st1{fill:#00283E;}
</style>
<g class="st0">
	<circle class="st1" cx="45" cy="45" r="45"/>
</g>
<path class="st1" d="M64,60.83V64H48.17v-3.17c0-2.62,2.13-4.75,4.75-4.75h6.33C61.87,56.08,64,58.21,64,60.83z M26,37.08h38v13.46
	h-0.79c0-3.93-3.2-7.12-7.12-7.12s-7.12,3.2-7.12,7.12c0,1.47,0.47,2.82,1.23,3.96H26V37.08z M30.75,47.38
	c0,1.31,1.06,2.38,2.38,2.38s2.38-1.06,2.38-2.38S34.44,45,33.12,45S30.75,46.06,30.75,47.38z M59.25,26h-28.5
	C28.13,26,26,28.13,26,30.75v3.17h38v-3.17C64,28.13,61.87,26,59.25,26z M56.08,54.5c2.19,0,3.96-1.77,3.96-3.96
	s-1.77-3.96-3.96-3.96s-3.96,1.77-3.96,3.96S53.9,54.5,56.08,54.5z"/>
</svg>
