<?xml version="1.0" encoding="utf-8"?>
<!-- Generator: Adobe Illustrator 27.1.1, SVG Export Plug-In . SVG Version: 6.00 Build 0)  -->
<svg version="1.1" id="Calque_1" xmlns="http://www.w3.org/2000/svg" xmlns:xlink="http://www.w3.org/1999/xlink" x="0px" y="0px"
	 viewBox="0 0 90 90" style="enable-background:new 0 0 90 90;" xml:space="preserve">
<style type="text/css">
	.st0{opacity:0.1;}
	.st1{fill:#00283E;}
</style>
<g class="st0">
	<circle class="st1" cx="45" cy="45" r="45"/>
</g>
<path class="st1" d="M40.23,30.75c0,0.02,0.01,0.04,0.01,0.06l-4.67,2.8c-0.85-0.79-1.98-1.28-3.23-1.28
	c-2.62,0-4.75,2.13-4.75,4.75c0,2.06,1.33,3.8,3.17,4.46v6.91c-1.84,0.65-3.17,2.39-3.17,4.46c0,2.62,2.13,4.75,4.75,4.75
	c1.25,0,2.38-0.49,3.23-1.28l4.67,2.8c0,0.02-0.01,0.04-0.01,0.06c0,2.62,2.13,4.75,4.75,4.75c2.62,0,4.75-2.13,4.75-4.75
	c0-0.01,0-0.03,0-0.04l4.72-2.83c0.85,0.79,1.98,1.28,3.23,1.28c2.62,0,4.75-2.13,4.75-4.75c0-2.06-1.33-3.8-3.17-4.46v-6.91
	c1.84-0.65,3.17-2.39,3.17-4.46c0-2.62-2.13-4.75-4.75-4.75c-1.25,0-2.38,0.49-3.23,1.28l-4.72-2.83c0-0.01,0-0.03,0-0.04
	c0-2.62-2.13-4.75-4.75-4.75C42.35,26,40.23,28.13,40.23,30.75z M52.98,36.44c-0.03,0.21-0.06,0.43-0.06,0.65
	c0,2.06,1.33,3.8,3.17,4.46v6.91c-1.84,0.65-3.17,2.39-3.17,4.46c0,0.22,0.04,0.43,0.06,0.65l-4.39,2.63
	c-0.87-1.03-2.16-1.7-3.61-1.7c-1.45,0-2.73,0.66-3.6,1.68l-4.36-2.62c0.03-0.21,0.06-0.43,0.06-0.65c0-2.06-1.33-3.8-3.17-4.46
	v-6.91c1.84-0.65,3.17-2.39,3.17-4.46c0-0.22-0.04-0.43-0.06-0.65l4.36-2.62c0.87,1.02,2.15,1.68,3.6,1.68
	c1.46,0,2.74-0.67,3.61-1.7L52.98,36.44z M46.58,46.32l5.54-3.17v6.3l-5.54,3.46C46.58,52.92,46.58,46.32,46.58,46.32z M43.42,46.32
	v6.6l-5.54-3.46v-6.3L43.42,46.32z M45,36.89l5.59,3.49L45,43.58l-5.59-3.19L45,36.89z"/>
</svg>
