<?xml version="1.0" encoding="utf-8"?>
<!-- Generator: Adobe Illustrator 27.1.1, SVG Export Plug-In . SVG Version: 6.00 Build 0)  -->
<svg version="1.1" id="Calque_1" xmlns="http://www.w3.org/2000/svg" xmlns:xlink="http://www.w3.org/1999/xlink" x="0px" y="0px"
	 viewBox="0 0 90 90" style="enable-background:new 0 0 90 90;" xml:space="preserve">
<style type="text/css">
	.st0{opacity:0.1;}
	.st1{fill:#00283E;}
</style>
<g class="st0">
	<circle class="st1" cx="45" cy="45" r="45"/>
</g>
<path class="st1" d="M64,30.75v4.75c0,2.62-2.13,4.75-4.75,4.75H54.5v-3.17h4.17c-4.38-7.56-14.05-10.14-21.61-5.76
	s-10.14,14.05-5.76,21.61c1.98,3.43,5.18,5.98,8.96,7.17v3.27C30.1,60.75,23.99,50.4,26.61,40.24s12.98-16.26,23.13-13.64
	c4.55,1.17,8.49,3.99,11.09,7.9v-3.76L64,30.75z M52.91,54.5c0-2.62-2.13-4.75-4.75-4.75c-2.62,0-4.75,2.13-4.75,4.75h3.17
	c0-0.87,0.71-1.58,1.58-1.58c0.87,0,1.58,0.71,1.58,1.58c0,0.79-1.35,1.8-2.53,2.69c-1.78,1.34-3.8,2.85-3.8,5.22V64h9.5v-3.17H47.7
	c0.43-0.37,0.93-0.75,1.41-1.11C50.89,58.39,52.91,56.88,52.91,54.5z M60.83,56.08h-3.17v-6.33H54.5v6.33
	c0,1.75,1.42,3.17,3.17,3.17h3.17V64H64V49.75h-3.17V56.08z M46.58,35.5h-3.17v7.92h-6.33v3.17h9.5V35.5z"/>
</svg>
