<?xml version="1.0" encoding="utf-8"?>
<!-- Generator: Adobe Illustrator 27.1.1, SVG Export Plug-In . SVG Version: 6.00 Build 0)  -->
<svg version="1.1" id="Calque_1" xmlns="http://www.w3.org/2000/svg" xmlns:xlink="http://www.w3.org/1999/xlink" x="0px" y="0px"
	 viewBox="0 0 90 90" style="enable-background:new 0 0 90 90;" xml:space="preserve">
<style type="text/css">
	.st0{opacity:0.1;}
	.st1{fill:#00283E;}
</style>
<g class="st0">
	<circle class="st1" cx="45" cy="45" r="45"/>
</g>
<path class="st1" d="M38.67,45c-5.24,0-9.5-4.26-9.5-9.5s4.26-9.5,9.5-9.5s9.5,4.26,9.5,9.5S43.91,45,38.67,45z M55.22,63.96
	l-0.96-0.48c-1.8-0.9-7.68-4.28-7.68-9.93v-5.42c0-1.71,1.09-3.22,2.71-3.76l5.99-1.99l5.99,1.99c1.62,0.54,2.71,2.05,2.71,3.76
	v5.42c0,6.38-5.96,9.27-7.78,10.01L55.22,63.96L55.22,63.96z M43.42,53.55v-5.38h-9.5c-4.37,0-7.92,3.55-7.92,7.92V64h23.2
	C46.46,61.86,43.42,58.4,43.42,53.55z"/>
</svg>
