<?xml version="1.0" encoding="utf-8"?>
<!-- Generator: Adobe Illustrator 27.1.1, SVG Export Plug-In . SVG Version: 6.00 Build 0)  -->
<svg version="1.1" id="Calque_1" xmlns="http://www.w3.org/2000/svg" xmlns:xlink="http://www.w3.org/1999/xlink" x="0px" y="0px"
	 viewBox="0 0 90 90" style="enable-background:new 0 0 90 90;" xml:space="preserve">
<style type="text/css">
	.st0{opacity:0.1;}
	.st1{fill:#00283E;}
	.st2{fill:#0A283C;}
</style>
<g class="st0">
	<circle class="st1" cx="45" cy="45" r="45"/>
</g>
<path class="st2" d="M59.25,45c0-0.85-0.08-1.71-0.24-2.58l4.83-2.77l-4.73-8.23l-4.83,2.77c-1.33-1.14-2.87-2.03-4.53-2.61V26h-9.5
	v5.57c-1.66,0.59-3.2,1.47-4.53,2.61l-4.83-2.77l-4.73,8.23l4.83,2.77c-0.16,0.86-0.24,1.73-0.24,2.58s0.08,1.71,0.24,2.58
	l-4.83,2.77l4.73,8.23l4.83-2.77c1.33,1.14,2.87,2.03,4.53,2.61V64h9.5v-5.57c1.66-0.59,3.2-1.47,4.53-2.61l4.83,2.77l4.73-8.23
	l-4.83-2.77C59.17,46.73,59.25,45.85,59.25,45z M41.37,47.77L39.14,50l-2.71-2.71c-1.24-1.23-1.24-3.23,0-4.45l2.71-2.71l2.23,2.23
	l-2.71,2.71l2.71,2.68V47.77z M44.97,53.23l-3.1-0.62l3.17-15.83l3.1,0.62L44.97,53.23z M53.58,47.3L50.87,50l-2.23-2.23l2.71-2.71
	l-2.71-2.69l2.23-2.23l2.71,2.71C54.82,44.08,54.82,46.08,53.58,47.3z"/>
</svg>
