<?xml version="1.0" encoding="utf-8"?>
<!-- Generator: Adobe Illustrator 27.1.1, SVG Export Plug-In . SVG Version: 6.00 Build 0)  -->
<svg version="1.1" id="Calque_1" xmlns="http://www.w3.org/2000/svg" xmlns:xlink="http://www.w3.org/1999/xlink" x="0px" y="0px"
	 viewBox="0 0 130 130" style="enable-background:new 0 0 130 130;" xml:space="preserve">
<style type="text/css">
	.st0{opacity:0.1;}
	.st1{fill:#00283E;}
</style>
<g class="st0">
	<circle class="st1" cx="65" cy="65" r="65"/>
</g>
<g>
	<path class="st1" d="M77.41,57.82l12.25-6.11c0.45-0.26,0.45-0.91,0-1.17l-12.1-6.95c-0.1-0.06-0.22-0.09-0.34-0.09H58.97
		c-0.12,0-0.23,0.03-0.34,0.09L40.51,54.06c-0.21,0.12-0.34,0.34-0.34,0.58v9.95c0,0.24,0.13,0.46,0.34,0.58l12.08,6.97V58.21
		c0-0.24,0.13-0.46,0.34-0.58l11.74-6.78c0.21-0.12,0.46-0.12,0.67,0L77.41,57.82z"/>
	<path class="st1" d="M64.75,79.17l-12.16-7.02l-12.25,6.07c-0.45,0.26-0.45,0.91,0,1.16l12.13,7.04c0.08,0.04,0.17,0.07,0.25,0.07
		l18.35-0.02c0.09,0,0.18-0.02,0.25-0.07L89.58,75.9c0.16-0.09,0.25-0.26,0.25-0.44l0-10.18c0-0.18-0.1-0.35-0.25-0.44l-12.16-7.03
		v14.04c0,0.18-0.1,0.35-0.25,0.44l-11.9,6.87C65.1,79.26,64.9,79.26,64.75,79.17z"/>
</g>
</svg>
