<?xml version="1.0" encoding="utf-8"?>
<!-- Generator: Adobe Illustrator 27.1.1, SVG Export Plug-In . SVG Version: 6.00 Build 0)  -->
<svg version="1.1" id="Calque_1" xmlns="http://www.w3.org/2000/svg" xmlns:xlink="http://www.w3.org/1999/xlink" x="0px" y="0px"
	 viewBox="0 0 260 24.67" style="enable-background:new 0 0 260 24.67;" xml:space="preserve">
<style type="text/css">
	.st0{fill:#00283E;}
</style>
<g>
	<g>
		<path class="st0" d="M48.69,24.54c-3.03,0-5.45-0.66-7.26-1.99c-1.8-1.33-2.79-3.17-2.96-5.54h4.12c0.11,1.37,0.71,2.42,1.78,3.15
			c1.07,0.73,2.56,1.09,4.47,1.09c1.68,0,2.96-0.29,3.84-0.86c0.88-0.57,1.32-1.43,1.32-2.58c0-0.88-0.3-1.59-0.89-2.13
			c-0.59-0.54-1.5-0.94-2.72-1.19l-4.58-0.92c-2.08-0.42-3.65-1.15-4.71-2.2c-1.06-1.05-1.59-2.39-1.59-4.01
			c0-2.08,0.78-3.72,2.35-4.91c1.56-1.19,3.69-1.79,6.38-1.79c2.71,0,4.91,0.63,6.6,1.88c1.69,1.25,2.65,2.99,2.88,5.22h-4.12
			c-0.57-2.6-2.43-3.89-5.58-3.89c-1.43,0-2.56,0.27-3.38,0.82c-0.82,0.54-1.23,1.32-1.23,2.33c0,1.58,1.14,2.6,3.41,3.06l4.78,0.97
			c2.14,0.42,3.72,1.16,4.75,2.23c1.03,1.07,1.55,2.48,1.55,4.24c0,2.21-0.81,3.94-2.42,5.17S51.6,24.54,48.69,24.54z"/>
		<path class="st0" d="M69.03,24.54c-1.81,0-3.39-0.37-4.74-1.1c-1.35-0.73-2.39-1.77-3.13-3.11c-0.74-1.34-1.12-2.91-1.12-4.72
			c0-1.81,0.37-3.39,1.1-4.72c0.73-1.34,1.78-2.37,3.13-3.11c1.35-0.73,2.95-1.1,4.78-1.1c1.85,0,3.44,0.36,4.78,1.09
			c1.34,0.73,2.37,1.76,3.09,3.09c0.72,1.34,1.09,2.92,1.09,4.75c0,1.81-0.36,3.39-1.09,4.74c-0.73,1.35-1.76,2.38-3.11,3.11
			C72.48,24.18,70.88,24.54,69.03,24.54z M69.03,21.16c1.62,0,2.88-0.5,3.76-1.49c0.89-0.99,1.33-2.35,1.33-4.06
			c0-1.76-0.44-3.12-1.33-4.09s-2.14-1.46-3.76-1.46c-1.6,0-2.85,0.49-3.75,1.47c-0.9,0.98-1.34,2.34-1.34,4.08
			c0,1.72,0.45,3.07,1.34,4.06C66.18,20.67,67.43,21.16,69.03,21.16z"/>
		<path class="st0" d="M81.01,24.2V0.15h3.89V24.2H81.01z"/>
		<path class="st0" d="M90.92,4.96c-0.61,0-1.14-0.21-1.57-0.64c-0.44-0.43-0.66-0.96-0.66-1.59c0-0.61,0.21-1.14,0.64-1.57
			c0.43-0.44,0.96-0.66,1.59-0.66c0.61,0,1.14,0.21,1.57,0.64c0.44,0.43,0.66,0.96,0.66,1.59c0,0.61-0.21,1.14-0.64,1.57
			C92.08,4.74,91.55,4.96,90.92,4.96z M88.98,24.2V7.02h3.89V24.2H88.98z"/>
		<path class="st0" d="M104.02,24.54c-1.74,0-3.22-0.37-4.44-1.1c-1.22-0.73-2.15-1.77-2.78-3.11c-0.63-1.34-0.94-2.91-0.94-4.72
			c0-1.81,0.31-3.39,0.93-4.74c0.62-1.35,1.52-2.38,2.69-3.11c1.17-0.73,2.57-1.09,4.19-1.09c1.34,0,2.48,0.25,3.43,0.76
			c0.95,0.51,1.69,1.23,2.2,2.16h0.11V0.15h3.89v20.12h1.95v3.92h-4.04v-2.72h-1.2c-0.59,0.99-1.39,1.75-2.39,2.28
			C106.63,24.28,105.43,24.54,104.02,24.54z M104.67,21.19c1.45,0,2.61-0.41,3.46-1.23c0.86-0.82,1.29-1.93,1.29-3.32v-2.06
			c0-1.39-0.43-2.5-1.29-3.32c-0.86-0.82-2.01-1.23-3.46-1.23c-1.58,0-2.8,0.5-3.65,1.49c-0.85,0.99-1.27,2.36-1.27,4.09
			c0,1.74,0.42,3.1,1.27,4.09C101.87,20.7,103.09,21.19,104.67,21.19z"/>
		<path class="st0" d="M126.07,24.54c-1.81,0-3.39-0.37-4.74-1.1c-1.35-0.73-2.38-1.78-3.11-3.13c-0.73-1.35-1.09-2.94-1.09-4.75
			c0-1.81,0.36-3.38,1.07-4.71c0.72-1.33,1.73-2.35,3.05-3.08c1.32-0.73,2.87-1.09,4.67-1.09c1.72,0,3.2,0.34,4.44,1.02
			c1.24,0.68,2.2,1.64,2.88,2.89c0.68,1.25,1.02,2.73,1.02,4.45v1.43h-13.4c0.15,1.56,0.68,2.77,1.57,3.62
			c0.9,0.85,2.1,1.27,3.61,1.27c1.11,0,2.01-0.21,2.72-0.63c0.71-0.42,1.19-1.05,1.46-1.89h3.95c-0.42,1.79-1.34,3.19-2.76,4.19
			C129.99,24.04,128.21,24.54,126.07,24.54z M120.97,13.75h9.56c-0.15-1.26-0.63-2.23-1.43-2.91c-0.8-0.68-1.86-1.02-3.18-1.02
			c-1.32,0-2.4,0.34-3.26,1.02C121.8,11.52,121.24,12.49,120.97,13.75z"/>
		<path class="st0" d="M141.62,24.2h-3.98V1.01h16.2v3.43h-12.22v6.35h11.39v3.44h-11.39V24.2z"/>
		<path class="st0" d="M158.18,4.96c-0.61,0-1.14-0.21-1.57-0.64c-0.44-0.43-0.66-0.96-0.66-1.59c0-0.61,0.21-1.14,0.64-1.57
			c0.43-0.44,0.96-0.66,1.59-0.66c0.61,0,1.14,0.21,1.57,0.64c0.44,0.43,0.66,0.96,0.66,1.59c0,0.61-0.21,1.14-0.64,1.57
			C159.34,4.74,158.81,4.96,158.18,4.96z M156.23,24.2V7.02h3.89V24.2H156.23z"/>
		<path class="st0" d="M165.03,24.2V10.94h-1.98V7.02h4.06v2.72h1.2c0.61-0.97,1.43-1.72,2.45-2.25c1.02-0.52,2.26-0.79,3.71-0.79
			c2.29,0,4.08,0.64,5.37,1.93c1.29,1.29,1.93,3.01,1.93,5.17V24.2h-3.89v-9.7c0-1.41-0.38-2.49-1.13-3.23
			c-0.75-0.74-1.87-1.12-3.33-1.12c-1.47,0-2.59,0.37-3.35,1.12c-0.76,0.74-1.15,1.82-1.15,3.23v9.7H165.03z"/>
		<path class="st0" d="M190.75,24.51c-1.97,0-3.52-0.49-4.65-1.46c-1.14-0.97-1.7-2.25-1.7-3.84c0-1.66,0.57-2.95,1.72-3.86
			c1.15-0.92,2.79-1.37,4.92-1.37h5.44v-0.72c0-2.29-1.3-3.44-3.89-3.44c-2.19,0-3.51,0.79-3.95,2.38h-3.89
			c0.32-1.77,1.17-3.14,2.53-4.09c1.36-0.95,3.14-1.43,5.34-1.43c2.46,0,4.34,0.57,5.64,1.7c1.3,1.14,1.95,2.78,1.95,4.94v6.96h1.86
			v3.92h-4.04v-2.72h-1.2c-0.59,0.95-1.39,1.7-2.4,2.23C193.4,24.25,192.18,24.51,190.75,24.51z M191.32,21.48
			c0.97,0,1.85-0.19,2.63-0.57c0.78-0.38,1.4-0.89,1.85-1.53c0.45-0.64,0.67-1.35,0.67-2.13V16.7h-5.24c-2.1,0-3.15,0.78-3.15,2.35
			c0,0.76,0.29,1.36,0.86,1.79C189.52,21.26,190.31,21.48,191.32,21.48z"/>
		<path class="st0" d="M205.25,24.2V10.94h-1.98V7.02h4.06v2.72h1.2c0.61-0.97,1.43-1.72,2.45-2.25c1.02-0.52,2.26-0.79,3.71-0.79
			c2.29,0,4.08,0.64,5.37,1.93c1.29,1.29,1.93,3.01,1.93,5.17V24.2h-3.89v-9.7c0-1.41-0.38-2.49-1.13-3.23
			c-0.75-0.74-1.87-1.12-3.33-1.12c-1.47,0-2.59,0.37-3.35,1.12c-0.76,0.74-1.15,1.82-1.15,3.23v9.7H205.25z"/>
		<path class="st0" d="M233.51,24.54c-1.76,0-3.29-0.37-4.61-1.1c-1.32-0.73-2.34-1.77-3.08-3.11c-0.74-1.34-1.1-2.91-1.1-4.72
			c0-1.81,0.36-3.39,1.09-4.72c0.72-1.34,1.75-2.37,3.06-3.11c1.32-0.73,2.86-1.1,4.64-1.1c2.18,0,3.98,0.54,5.41,1.63
			s2.36,2.61,2.78,4.58h-3.92c-0.29-0.93-0.79-1.64-1.5-2.12c-0.72-0.48-1.64-0.72-2.76-0.72c-1.51,0-2.7,0.49-3.58,1.46
			c-0.88,0.97-1.32,2.34-1.32,4.09c0,1.76,0.44,3.12,1.32,4.09c0.88,0.97,2.07,1.46,3.58,1.46c2.37,0,3.82-1.04,4.35-3.12h3.92
			c-0.38,2.08-1.29,3.68-2.72,4.81C237.63,23.98,235.78,24.54,233.51,24.54z"/>
		<path class="st0" d="M251.81,24.54c-1.81,0-3.39-0.37-4.74-1.1c-1.35-0.73-2.38-1.78-3.11-3.13c-0.73-1.35-1.09-2.94-1.09-4.75
			c0-1.81,0.36-3.38,1.07-4.71c0.72-1.33,1.73-2.35,3.05-3.08c1.32-0.73,2.87-1.09,4.67-1.09c1.72,0,3.2,0.34,4.44,1.02
			c1.24,0.68,2.2,1.64,2.88,2.89c0.68,1.25,1.02,2.73,1.02,4.45v1.43h-13.4c0.15,1.56,0.68,2.77,1.57,3.62
			c0.9,0.85,2.1,1.27,3.61,1.27c1.11,0,2.01-0.21,2.72-0.63c0.71-0.42,1.19-1.05,1.46-1.89h3.95c-0.42,1.79-1.34,3.19-2.76,4.19
			C255.73,24.04,253.95,24.54,251.81,24.54z M246.72,13.75h9.56c-0.15-1.26-0.63-2.23-1.43-2.91c-0.8-0.68-1.86-1.02-3.18-1.02
			c-1.32,0-2.4,0.34-3.26,1.02C247.55,11.52,246.98,12.49,246.72,13.75z"/>
	</g>
	<g>
		<path class="st0" d="M21.44,8.23l7.02-3.5c0.26-0.15,0.26-0.52,0-0.67l-6.93-3.98c-0.06-0.03-0.12-0.05-0.19-0.05H10.87
			c-0.07,0-0.13,0.02-0.19,0.05l-10.39,6C0.17,6.15,0.1,6.27,0.1,6.41v5.7c0,0.14,0.07,0.27,0.19,0.33l6.92,4V8.46
			c0-0.14,0.07-0.27,0.19-0.33l6.73-3.88c0.12-0.07,0.27-0.07,0.39,0L21.44,8.23z"/>
		<path class="st0" d="M14.18,20.47l-6.97-4.02l-7.02,3.48c-0.26,0.15-0.26,0.52,0,0.67l6.95,4.04c0.04,0.03,0.09,0.04,0.15,0.04
			l10.51-0.01c0.05,0,0.1-0.01,0.14-0.04l10.46-6.02c0.09-0.05,0.15-0.15,0.15-0.25l0-5.83c0-0.1-0.06-0.2-0.15-0.25l-6.97-4.03
			v8.04c0,0.1-0.06,0.2-0.15,0.25l-6.82,3.94C14.38,20.52,14.27,20.52,14.18,20.47z"/>
	</g>
</g>
</svg>
