<?xml version="1.0" encoding="utf-8"?>
<!-- Generator: Adobe Illustrator 27.1.1, SVG Export Plug-In . SVG Version: 6.00 Build 0)  -->
<svg version="1.1" id="Layer_16" xmlns="http://www.w3.org/2000/svg" xmlns:xlink="http://www.w3.org/1999/xlink" x="0px" y="0px"
	 viewBox="0 0 512 512" style="enable-background:new 0 0 512 512;" xml:space="preserve">
<style type="text/css">
	.st0{fill:#00283E;}
</style>
<path class="st0" d="M512,404.42H100.42l40.53,40.53l-45.33,45.18l-80-80c-20.83-20.83-20.84-54.59-0.01-75.42
	c0,0,0.01-0.01,0.01-0.01l80-80l45.18,45.27l-40.53,40.53H512V404.42z M371.2,211.2l45.27,45.27l80-80
	c20.83-20.83,20.84-54.59,0.01-75.42c0,0-0.01-0.01-0.01-0.01l-80.09-80.09L371.2,66.13l40.53,40.53H0v64h411.58L371.2,211.2z"/>
</svg>
