<?xml version="1.0" encoding="utf-8"?>
<!-- Generator: Adobe Illustrator 27.1.1, SVG Export Plug-In . SVG Version: 6.00 Build 0)  -->
<svg version="1.1" id="Layer_1" xmlns="http://www.w3.org/2000/svg" xmlns:xlink="http://www.w3.org/1999/xlink" x="0px" y="0px"
	 viewBox="0 0 24 24" style="enable-background:new 0 0 24 24;" xml:space="preserve">
<style type="text/css">
	.st0{fill:#00283E;}
</style>
<path class="st0" d="M12,5c-3.86,0-7,3.14-7,7s3.14,7,7,7s7-3.14,7-7S15.86,5,12,5z M15.94,11.26l-1.66,1.35l0.69,2.08
	c0.09,0.28,0,0.6-0.24,0.77c-0.24,0.18-0.56,0.19-0.81,0.03l-1.92-1.25l-1.89,1.27c-0.11,0.08-0.25,0.11-0.39,0.11v-0.01
	c-0.15,0-0.3-0.05-0.42-0.14c-0.24-0.18-0.34-0.49-0.24-0.77l0.66-2.11l-1.66-1.35c-0.22-0.19-0.3-0.5-0.21-0.77
	s0.37-0.46,0.66-0.46h2.1l0.74-1.99c0.1-0.28,0.37-0.46,0.66-0.46s0.56,0.18,0.66,0.46l0.74,1.99h2.1c0.29,0,0.56,0.18,0.66,0.46
	S16.16,11.07,15.94,11.26L15.94,11.26z M12,0C5.38,0,0,5.38,0,12s5.38,12,12,12s12-5.38,12-12S18.62,0,12,0z M12,21
	c-4.96,0-9-4.04-9-9s4.04-9,9-9s9,4.04,9,9S16.96,21,12,21z"/>
</svg>
