<?xml version="1.0" encoding="utf-8"?>
<!-- Generator: Adobe Illustrator 27.1.1, SVG Export Plug-In . SVG Version: 6.00 Build 0)  -->
<svg version="1.1" id="Layer_1" xmlns="http://www.w3.org/2000/svg" xmlns:xlink="http://www.w3.org/1999/xlink" x="0px" y="0px"
	 viewBox="0 0 24 24" style="enable-background:new 0 0 24 24;" xml:space="preserve">
<style type="text/css">
	.st0{fill:#00283E;}
</style>
<path class="st0" d="M0,24h10V14H0V24z M24,5.5C24,2.47,21.53,0,18.5,0S13,2.47,13,5.5s2.47,5.5,5.5,5.5S24,8.53,24,5.5z M5.36,2H2
	V0h5c1.1,0,2,0.9,2,2v5H7V3.33C3.92,5.1,2,8.36,2,12H0C0,7.89,2.04,4.19,5.36,2z M18.64,22H22v2h-5c-1.1,0-2-0.9-2-2v-5h2v3.67
	c3.08-1.76,5-5.02,5-8.67h2C24,16.11,21.96,19.81,18.64,22z"/>
</svg>
