<?xml version="1.0" encoding="utf-8"?>
<!-- Generator: Adobe Illustrator 27.1.1, SVG Export Plug-In . SVG Version: 6.00 Build 0)  -->
<svg version="1.1" id="Layer_1" xmlns="http://www.w3.org/2000/svg" xmlns:xlink="http://www.w3.org/1999/xlink" x="0px" y="0px"
	 viewBox="0 0 24 24" style="enable-background:new 0 0 24 24;" xml:space="preserve">
<style type="text/css">
	.st0{fill:#00283E;}
</style>
<path class="st0" d="M17.94,7.39L12,10.69L6.06,7.39l0.82-0.47L3.76,4.65C3.39,4.87,2.96,5,2.5,5C1.12,5,0,3.88,0,2.5S1.12,0,2.5,0
	S5,1.12,5,2.5c0,0.18-0.02,0.36-0.06,0.54l3.84,2.79L12,3.99l3.22,1.84l3.84-2.79C19.02,2.86,19,2.68,19,2.5C19,1.12,20.12,0,21.5,0
	S24,1.12,24,2.5S22.88,5,21.5,5c-0.46,0-0.89-0.13-1.26-0.35l-3.12,2.27L17.94,7.39z M5,16.01l1.88,1.07l-3.12,2.27
	C3.39,19.13,2.96,19,2.5,19C1.12,19,0,20.12,0,21.5S1.12,24,2.5,24S5,22.88,5,21.5c0-0.18-0.02-0.36-0.06-0.54l3.84-2.79L11,19.44
	v-7.01L5,9.09C5,9.09,5,16.01,5,16.01z M21.5,19c-0.46,0-0.89,0.13-1.26,0.35l-3.12-2.27L19,16.01V9.09l-6,3.34v7.01l2.22-1.27
	l3.84,2.79C19.02,21.14,19,21.31,19,21.5c0,1.38,1.12,2.5,2.5,2.5s2.5-1.12,2.5-2.5S22.88,19,21.5,19z"/>
</svg>
